<svg xmlns="http://www.w3.org/2000/svg" width="100%" height="100%" xmlns:svg="http://www.w3.org/2000/svg" xmlns:xlink="http://www.w3.org/1999/xlink" viewBox="0 0 120 225" preserveAspectRatio="xMidYMid meet" zoomAndPan="disable"><rect id="svgEditorBackground" x="0" y="0" width="959" height="559" style="fill: none; stroke: none;"/><path d="M-10.087,-5.52418 l-4,6.928 h8 z" style="vector-effect: non-scaling-stroke; stroke-width: 1px;" stroke="black" id="e2_shape" transform="matrix(34.5, 0, 0, 213.574, -792.5, 429.5)" fill="khaki"/><path d="M-8.125,-5.08093 l-4,6.928 h8 z" style="vector-effect: non-scaling-stroke; stroke-width: 1px;" stroke="black" id="e3_shape" transform="matrix(16, 0, 0, 112.559, -229.5, 332.5)" fill="khaki"/><path d="M-9.42734,-3.87903 l1.25,1.25 a1,1 0 0,0 1.25,-1.25 l-2.5,-3.75 a2,2 0 0,0 -2.5,0 l-2.5,3.75 a1,1 0 0,0 1.25,1.25 l1.25,-1.25 v3.125 a1,1 0 0,0 2.5,0 z" style="vector-effect: non-scaling-stroke; stroke-width: 1px;" stroke="black" id="e7_shape" transform="matrix(11.8007, 0, 0, 23.4595, 183.521, 199.869)" fill="khaki"/></svg>
